<?xml version="1.0" encoding="UTF-8" standalone="no"?>
<!-- Created with Inkscape (http://www.inkscape.org/) -->

<svg
   width="39.991234mm"
   height="23.291546mm"
   viewBox="0 0 39.991234 23.291546"
   version="1.1"
   id="svg1"
   inkscape:version="1.3.2 (091e20e, 2023-11-25, custom)"
   sodipodi:docname="arXiv.2311.14826.svg"
   inkscape:export-filename="arXiv.2311.14826.png"
   inkscape:export-xdpi="96"
   inkscape:export-ydpi="96"
   xmlns:inkscape="http://www.inkscape.org/namespaces/inkscape"
   xmlns:sodipodi="http://sodipodi.sourceforge.net/DTD/sodipodi-0.dtd"
   xmlns="http://www.w3.org/2000/svg"
   xmlns:svg="http://www.w3.org/2000/svg">
  <sodipodi:namedview
     id="namedview1"
     pagecolor="#ffffff"
     bordercolor="#000000"
     borderopacity="0.25"
     inkscape:showpageshadow="2"
     inkscape:pageopacity="0.0"
     inkscape:pagecheckerboard="0"
     inkscape:deskcolor="#d1d1d1"
     inkscape:document-units="mm"
     inkscape:zoom="3.2428849"
     inkscape:cx="126.89319"
     inkscape:cy="-1.2334696"
     inkscape:window-width="1920"
     inkscape:window-height="1122"
     inkscape:window-x="-8"
     inkscape:window-y="-8"
     inkscape:window-maximized="1"
     inkscape:current-layer="layer1" />
  <defs
     id="defs1">
    <clipPath
       clipPathUnits="userSpaceOnUse"
       id="clipPath38">
      <path
         d="M 4.801,26 H 41 V 57 H 4.801 Z"
         transform="matrix(1.8178933,0,0,1.8178933,408.80533,368.04087)"
         id="path38" />
    </clipPath>
    <clipPath
       clipPathUnits="userSpaceOnUse"
       id="clipPath37">
      <path
         d="M 0,0 H 179 V 78 H 0 Z"
         transform="translate(1.8336243e-6)"
         id="path37" />
    </clipPath>
    <clipPath
       clipPathUnits="userSpaceOnUse"
       id="clipPath40">
      <path
         d="M 4.801,5.039 H 42 V 58 H 4.801 Z"
         transform="matrix(1.8178933,0,0,1.8178933,408.80533,368.04087)"
         id="path40" />
    </clipPath>
    <clipPath
       clipPathUnits="userSpaceOnUse"
       id="clipPath39">
      <path
         d="M 0,0 H 179 V 78 H 0 Z"
         transform="translate(1.8336243e-6)"
         id="path39" />
    </clipPath>
    <clipPath
       clipPathUnits="userSpaceOnUse"
       id="clipPath42">
      <path
         d="M 42,26 H 88.078 V 57 H 42 Z"
         transform="matrix(1.8178933,0,0,1.8178933,408.80533,368.04087)"
         id="path42" />
    </clipPath>
    <clipPath
       clipPathUnits="userSpaceOnUse"
       id="clipPath41">
      <path
         d="M 0,0 H 179 V 78 H 0 Z"
         transform="translate(1.8336243e-6)"
         id="path41" />
    </clipPath>
    <clipPath
       clipPathUnits="userSpaceOnUse"
       id="clipPath44">
      <path
         d="M 42,35 H 88.078 V 58 H 42 Z"
         transform="matrix(1.8178933,0,0,1.8178933,408.80533,368.04087)"
         id="path44" />
    </clipPath>
    <clipPath
       clipPathUnits="userSpaceOnUse"
       id="clipPath43">
      <path
         d="M 0,0 H 179 V 78 H 0 Z"
         transform="translate(1.8336243e-6)"
         id="path43" />
    </clipPath>
    <clipPath
       clipPathUnits="userSpaceOnUse"
       id="clipPath46">
      <path
         d="M 4.801,5.039 H 88.078 V 52 H 4.801 Z"
         transform="matrix(1.8178933,0,0,1.8178933,408.80533,368.04087)"
         id="path46" />
    </clipPath>
    <clipPath
       clipPathUnits="userSpaceOnUse"
       id="clipPath45">
      <path
         d="M 0,0 H 179 V 78 H 0 Z"
         transform="translate(1.8336243e-6)"
         id="path45" />
    </clipPath>
    <clipPath
       clipPathUnits="userSpaceOnUse"
       id="clipPath47">
      <path
         d="M 4.801,5.039 H 88.078 V 52 H 4.801 Z"
         transform="translate(1.8336243e-6)"
         id="path47" />
    </clipPath>
    <clipPath
       clipPathUnits="userSpaceOnUse"
       id="clipPath48">
      <path
         d="M 4.801,5.039 H 88.078 V 52 H 4.801 Z"
         transform="translate(1.8336243e-6)"
         id="path48" />
    </clipPath>
    <clipPath
       clipPathUnits="userSpaceOnUse"
       id="clipPath49">
      <path
         d="M 0,0 H 179 V 77.000008 H 0 Z"
         transform="matrix(1,0,0,-1,1.8336243e-6,77.000007)"
         id="path49" />
    </clipPath>
    <clipPath
       clipPathUnits="userSpaceOnUse"
       id="clipPath50">
      <path
         d="M 0,0 H 179 V 77.000008 H 0 Z"
         transform="matrix(1,0,0,-1,1.8336243e-6,77.000007)"
         id="path50" />
    </clipPath>
    <clipPath
       clipPathUnits="userSpaceOnUse"
       id="clipPath51">
      <path
         d="M 0,0 H 179 V 77.000008 H 0 Z"
         transform="matrix(1,0,0,-1,1.8336243e-6,77.000007)"
         id="path51" />
    </clipPath>
    <clipPath
       clipPathUnits="userSpaceOnUse"
       id="clipPath52">
      <path
         d="M 0,0 H 179 V 77.000008 H 0 Z"
         transform="matrix(1,0,0,-1,1.8336243e-6,77.000007)"
         id="path52" />
    </clipPath>
    <clipPath
       clipPathUnits="userSpaceOnUse"
       id="clipPath53">
      <path
         d="M 0,0 H 179 V 77.000008 H 0 Z"
         transform="matrix(1,0,0,-1,1.8336243e-6,77.000007)"
         id="path53" />
    </clipPath>
    <clipPath
       clipPathUnits="userSpaceOnUse"
       id="clipPath54">
      <path
         d="M 0,0 H 179 V 77.000008 H 0 Z"
         transform="matrix(1,0,0,-1,1.8336243e-6,77.000007)"
         id="path54" />
    </clipPath>
    <clipPath
       clipPathUnits="userSpaceOnUse"
       id="clipPath55">
      <path
         d="M 0,0 H 179 V 77.000008 H 0 Z"
         transform="matrix(1,0,0,-1,1.8336243e-6,77.000007)"
         id="path55" />
    </clipPath>
    <clipPath
       clipPathUnits="userSpaceOnUse"
       id="clipPath56">
      <path
         d="M 0,0 H 179 V 77.000008 H 0 Z"
         transform="matrix(1,0,0,-1,1.8336243e-6,77.000007)"
         id="path56" />
    </clipPath>
    <clipPath
       clipPathUnits="userSpaceOnUse"
       id="clipPath57">
      <path
         d="M 0,0 H 179 V 77.000008 H 0 Z"
         transform="matrix(1,0,0,-1,1.8336243e-6,77.000007)"
         id="path57" />
    </clipPath>
    <clipPath
       clipPathUnits="userSpaceOnUse"
       id="clipPath58">
      <path
         d="M 0,0 H 179 V 77.000008 H 0 Z"
         transform="matrix(1,0,0,-1,1.8336243e-6,77.000007)"
         id="path58" />
    </clipPath>
    <clipPath
       clipPathUnits="userSpaceOnUse"
       id="clipPath59">
      <path
         d="M 0,0 H 179 V 77.000008 H 0 Z"
         transform="matrix(1,0,0,-1,1.8336243e-6,77.000007)"
         id="path59" />
    </clipPath>
    <clipPath
       clipPathUnits="userSpaceOnUse"
       id="clipPath60">
      <path
         d="M 0,0 H 179 V 77.000008 H 0 Z"
         transform="matrix(1,0,0,-1,1.8336243e-6,77.000007)"
         id="path60" />
    </clipPath>
    <clipPath
       clipPathUnits="userSpaceOnUse"
       id="clipPath61">
      <path
         d="M 0,0 H 179 V 77.000008 H 0 Z"
         transform="matrix(1,0,0,-1,1.8336243e-6,77.000007)"
         id="path61" />
    </clipPath>
    <clipPath
       clipPathUnits="userSpaceOnUse"
       id="clipPath62">
      <path
         d="M 0,0 H 179 V 77.000008 H 0 Z"
         transform="matrix(1,0,0,-1,1.8336243e-6,77.000007)"
         id="path62" />
    </clipPath>
    <clipPath
       clipPathUnits="userSpaceOnUse"
       id="clipPath63">
      <path
         d="M 0,0 H 179 V 77.000008 H 0 Z"
         transform="matrix(1,0,0,-1,1.8336243e-6,77.000007)"
         id="path63" />
    </clipPath>
    <clipPath
       clipPathUnits="userSpaceOnUse"
       id="clipPath64">
      <path
         d="M 0,0 H 179 V 77.000008 H 0 Z"
         transform="matrix(1,0,0,-1,1.8336243e-6,77.000007)"
         id="path64" />
    </clipPath>
    <clipPath
       clipPathUnits="userSpaceOnUse"
       id="clipPath65">
      <path
         d="M 0,0 H 179 V 77.000008 H 0 Z"
         transform="matrix(1,0,0,-1,1.8336243e-6,77.000007)"
         id="path65" />
    </clipPath>
    <clipPath
       clipPathUnits="userSpaceOnUse"
       id="clipPath66">
      <path
         d="M 0,0 H 179 V 77.000008 H 0 Z"
         transform="matrix(1,0,0,-1,1.8336243e-6,77.000007)"
         id="path66" />
    </clipPath>
    <clipPath
       clipPathUnits="userSpaceOnUse"
       id="clipPath67">
      <path
         d="M 0,0 H 179 V 77.000008 H 0 Z"
         transform="matrix(1,0,0,-1,1.8336243e-6,77.000007)"
         id="path67" />
    </clipPath>
    <clipPath
       clipPathUnits="userSpaceOnUse"
       id="clipPath68">
      <path
         d="M 0,0 H 179 V 77.000008 H 0 Z"
         transform="matrix(1,0,0,-1,1.8336243e-6,77.000007)"
         id="path68" />
    </clipPath>
    <clipPath
       clipPathUnits="userSpaceOnUse"
       id="clipPath69">
      <path
         d="M 0,0 H 179 V 77.000008 H 0 Z"
         transform="matrix(1,0,0,-1,1.8336243e-6,77.000007)"
         id="path69" />
    </clipPath>
    <clipPath
       clipPathUnits="userSpaceOnUse"
       id="clipPath70">
      <path
         d="M 0,0 H 179 V 77.000008 H 0 Z"
         transform="matrix(1,0,0,-1,1.8336243e-6,77.000007)"
         id="path70" />
    </clipPath>
    <clipPath
       clipPathUnits="userSpaceOnUse"
       id="clipPath71">
      <path
         d="M 0,0 H 179 V 77.000008 H 0 Z"
         transform="matrix(1,0,0,-1,1.8336243e-6,77.000007)"
         id="path71" />
    </clipPath>
    <clipPath
       clipPathUnits="userSpaceOnUse"
       id="clipPath72">
      <path
         d="M 0,0 H 179 V 77.000008 H 0 Z"
         transform="matrix(1,0,0,-1,1.8336243e-6,77.000007)"
         id="path72" />
    </clipPath>
    <clipPath
       clipPathUnits="userSpaceOnUse"
       id="clipPath73">
      <path
         d="M 0,0 H 179 V 77.000008 H 0 Z"
         transform="matrix(1,0,0,-1,1.8336243e-6,77.000007)"
         id="path73" />
    </clipPath>
    <clipPath
       clipPathUnits="userSpaceOnUse"
       id="clipPath75">
      <path
         d="M 89.762,18 H 126 V 54 H 89.762 Z"
         transform="matrix(1.8178933,0,0,1.8178933,408.80533,368.04087)"
         id="path75" />
    </clipPath>
    <clipPath
       clipPathUnits="userSpaceOnUse"
       id="clipPath74">
      <path
         d="M 0,0 H 179 V 78 H 0 Z"
         transform="translate(1.8336243e-6)"
         id="path74" />
    </clipPath>
    <clipPath
       clipPathUnits="userSpaceOnUse"
       id="clipPath76">
      <path
         d="M 0,0 H 179 V 77.000008 H 0 Z"
         transform="matrix(1,0,0,-1,1.8336243e-6,77.000007)"
         id="path76" />
    </clipPath>
    <clipPath
       clipPathUnits="userSpaceOnUse"
       id="clipPath77">
      <path
         d="M 0,0 H 179 V 78 H 0 Z"
         transform="translate(1.8336243e-6)"
         id="path77" />
    </clipPath>
    <clipPath
       clipPathUnits="userSpaceOnUse"
       id="clipPath78">
      <path
         d="M 0,0 H 179 V 78 H 0 Z"
         transform="translate(1.8336243e-6)"
         id="path78" />
    </clipPath>
    <clipPath
       clipPathUnits="userSpaceOnUse"
       id="clipPath81">
      <path
         d="m 89.762,17 h 83.277 v 2 H 89.762 Z"
         transform="matrix(1.8178933,0,0,1.8178933,408.80533,368.04087)"
         id="path81" />
    </clipPath>
    <clipPath
       clipPathUnits="userSpaceOnUse"
       id="clipPath80">
      <path
         d="M 0,0 H 179 V 78 H 0 Z"
         transform="translate(1.8336243e-6)"
         id="path80" />
    </clipPath>
    <clipPath
       clipPathUnits="userSpaceOnUse"
       id="clipPath82">
      <path
         d="M 0,0 H 179 V 78 H 0 Z"
         transform="translate(1.8336243e-6)"
         id="path82" />
    </clipPath>
    <clipPath
       clipPathUnits="userSpaceOnUse"
       id="clipPath83">
      <path
         d="M 0,0 H 179 V 78 H 0 Z"
         transform="translate(1.8336243e-6)"
         id="path83" />
    </clipPath>
    <clipPath
       clipPathUnits="userSpaceOnUse"
       id="clipPath86">
      <path
         d="M 89.762,18 H 127 V 58 H 89.762 Z"
         transform="matrix(1.8178933,0,0,1.8178933,408.80533,368.04087)"
         id="path86" />
    </clipPath>
    <clipPath
       clipPathUnits="userSpaceOnUse"
       id="clipPath85">
      <path
         d="M 0,0 H 179 V 78 H 0 Z"
         transform="translate(1.8336243e-6)"
         id="path85" />
    </clipPath>
    <clipPath
       clipPathUnits="userSpaceOnUse"
       id="clipPath88">
      <path
         d="m 127,18 h 46.039 V 58 H 127 Z"
         transform="matrix(1.8178933,0,0,1.8178933,408.80533,368.04087)"
         id="path88" />
    </clipPath>
    <clipPath
       clipPathUnits="userSpaceOnUse"
       id="clipPath87">
      <path
         d="M 0,0 H 179 V 78 H 0 Z"
         transform="translate(1.8336243e-6)"
         id="path87" />
    </clipPath>
    <clipPath
       clipPathUnits="userSpaceOnUse"
       id="clipPath89">
      <path
         d="m 127,18 h 46.039 V 58 H 127 Z"
         transform="translate(1.8336243e-6)"
         id="path89" />
    </clipPath>
    <clipPath
       clipPathUnits="userSpaceOnUse"
       id="clipPath90">
      <path
         d="m 127,18 h 46.039 V 58 H 127 Z"
         transform="translate(1.8336243e-6)"
         id="path90" />
    </clipPath>
    <clipPath
       clipPathUnits="userSpaceOnUse"
       id="clipPath91">
      <path
         d="M 0,0 H 179 V 77.000008 H 0 Z"
         transform="matrix(1,0,0,-1,1.8336243e-6,77.000007)"
         id="path91" />
    </clipPath>
    <clipPath
       clipPathUnits="userSpaceOnUse"
       id="clipPath92">
      <path
         d="M 0,0 H 179 V 77.000008 H 0 Z"
         transform="matrix(1,0,0,-1,1.8336243e-6,77.000007)"
         id="path92" />
    </clipPath>
    <clipPath
       clipPathUnits="userSpaceOnUse"
       id="clipPath93">
      <path
         d="M 0,0 H 179 V 77.000008 H 0 Z"
         transform="matrix(1,0,0,-1,1.8336243e-6,77.000007)"
         id="path93" />
    </clipPath>
    <clipPath
       clipPathUnits="userSpaceOnUse"
       id="clipPath94">
      <path
         d="M 0,0 H 179 V 77.000008 H 0 Z"
         transform="matrix(1,0,0,-1,1.8336243e-6,77.000007)"
         id="path94" />
    </clipPath>
    <clipPath
       clipPathUnits="userSpaceOnUse"
       id="clipPath95">
      <path
         d="M 0,0 H 179 V 77.000008 H 0 Z"
         transform="matrix(1,0,0,-1,1.8336243e-6,77.000007)"
         id="path95" />
    </clipPath>
    <clipPath
       clipPathUnits="userSpaceOnUse"
       id="clipPath96">
      <path
         d="M 0,0 H 179 V 77.000008 H 0 Z"
         transform="matrix(1,0,0,-1,1.8336243e-6,77.000007)"
         id="path96" />
    </clipPath>
    <clipPath
       clipPathUnits="userSpaceOnUse"
       id="clipPath97">
      <path
         d="M 0,0 H 179 V 77.000008 H 0 Z"
         transform="matrix(1,0,0,-1,1.8336243e-6,77.000007)"
         id="path97" />
    </clipPath>
    <clipPath
       clipPathUnits="userSpaceOnUse"
       id="clipPath98">
      <path
         d="M 0,0 H 179 V 77.000008 H 0 Z"
         transform="matrix(1,0,0,-1,1.8336243e-6,77.000007)"
         id="path98" />
    </clipPath>
    <clipPath
       clipPathUnits="userSpaceOnUse"
       id="clipPath99">
      <path
         d="M 0,0 H 179 V 77.000008 H 0 Z"
         transform="matrix(1,0,0,-1,1.8336243e-6,77.000007)"
         id="path99" />
    </clipPath>
    <clipPath
       clipPathUnits="userSpaceOnUse"
       id="clipPath100">
      <path
         d="M 0,0 H 179 V 77.000008 H 0 Z"
         transform="matrix(1,0,0,-1,1.8336243e-6,77.000007)"
         id="path100" />
    </clipPath>
    <clipPath
       clipPathUnits="userSpaceOnUse"
       id="clipPath101">
      <path
         d="M 0,0 H 179 V 77.000008 H 0 Z"
         transform="matrix(1,0,0,-1,1.8336243e-6,77.000007)"
         id="path101" />
    </clipPath>
    <clipPath
       clipPathUnits="userSpaceOnUse"
       id="clipPath102">
      <path
         d="M 0,0 H 179 V 77.000008 H 0 Z"
         transform="matrix(1,0,0,-1,1.8336243e-6,77.000007)"
         id="path102" />
    </clipPath>
    <clipPath
       clipPathUnits="userSpaceOnUse"
       id="clipPath103">
      <path
         d="M 0,0 H 179 V 77.000008 H 0 Z"
         transform="matrix(1,0,0,-1,1.8336243e-6,77.000007)"
         id="path103" />
    </clipPath>
    <clipPath
       clipPathUnits="userSpaceOnUse"
       id="clipPath104">
      <path
         d="M 0,0 H 179 V 77.000008 H 0 Z"
         transform="matrix(1,0,0,-1,1.8336243e-6,77.000007)"
         id="path104" />
    </clipPath>
    <clipPath
       clipPathUnits="userSpaceOnUse"
       id="clipPath105">
      <path
         d="M 0,0 H 179 V 77.000008 H 0 Z"
         transform="matrix(1,0,0,-1,1.8336243e-6,77.000007)"
         id="path105" />
    </clipPath>
    <clipPath
       clipPathUnits="userSpaceOnUse"
       id="clipPath106">
      <path
         d="M 0,0 H 179 V 77.000008 H 0 Z"
         transform="matrix(1,0,0,-1,1.8336243e-6,77.000007)"
         id="path106" />
    </clipPath>
    <clipPath
       clipPathUnits="userSpaceOnUse"
       id="clipPath107">
      <path
         d="M 0,0 H 179 V 77.000008 H 0 Z"
         transform="matrix(1,0,0,-1,1.8336243e-6,77.000007)"
         id="path107" />
    </clipPath>
    <clipPath
       clipPathUnits="userSpaceOnUse"
       id="clipPath108">
      <path
         d="M 0,0 H 179 V 77.000008 H 0 Z"
         transform="matrix(1,0,0,-1,1.8336243e-6,77.000007)"
         id="path108" />
    </clipPath>
    <clipPath
       clipPathUnits="userSpaceOnUse"
       id="clipPath109">
      <path
         d="M 0,0 H 179 V 77.000008 H 0 Z"
         transform="matrix(1,0,0,-1,1.8336243e-6,77.000007)"
         id="path109" />
    </clipPath>
    <clipPath
       clipPathUnits="userSpaceOnUse"
       id="clipPath110">
      <path
         d="M 0,0 H 179 V 77.000008 H 0 Z"
         transform="matrix(1,0,0,-1,1.8336243e-6,77.000007)"
         id="path110" />
    </clipPath>
    <clipPath
       clipPathUnits="userSpaceOnUse"
       id="clipPath111">
      <path
         d="M 0,0 H 179 V 77.000008 H 0 Z"
         transform="matrix(1,0,0,-1,1.8336243e-6,77.000007)"
         id="path111" />
    </clipPath>
    <clipPath
       clipPathUnits="userSpaceOnUse"
       id="clipPath112">
      <path
         d="M 0,0 H 179 V 77.000008 H 0 Z"
         transform="matrix(1,0,0,-1,1.8336243e-6,77.000007)"
         id="path112" />
    </clipPath>
    <clipPath
       clipPathUnits="userSpaceOnUse"
       id="clipPath113">
      <path
         d="M 0,0 H 179 V 77.000008 H 0 Z"
         transform="matrix(1,0,0,-1,1.8336243e-6,77.000007)"
         id="path113" />
    </clipPath>
    <clipPath
       clipPathUnits="userSpaceOnUse"
       id="clipPath114">
      <path
         d="M 0,0 H 179 V 77.000008 H 0 Z"
         transform="matrix(1,0,0,-1,1.8336243e-6,77.000007)"
         id="path114" />
    </clipPath>
    <clipPath
       clipPathUnits="userSpaceOnUse"
       id="clipPath115">
      <path
         d="M 0,0 H 179 V 77.000008 H 0 Z"
         transform="matrix(1,0,0,-1,1.8336243e-6,77.000007)"
         id="path115" />
    </clipPath>
    <clipPath
       clipPathUnits="userSpaceOnUse"
       id="clipPath116">
      <path
         d="M 0,0 H 179 V 77.000008 H 0 Z"
         transform="matrix(1,0,0,-1,1.8336243e-6,77.000007)"
         id="path116" />
    </clipPath>
    <clipPath
       clipPathUnits="userSpaceOnUse"
       id="clipPath117">
      <path
         d="M 0,0 H 179 V 77.000008 H 0 Z"
         transform="matrix(1,0,0,-1,1.8336243e-6,77.000007)"
         id="path117" />
    </clipPath>
    <clipPath
       clipPathUnits="userSpaceOnUse"
       id="clipPath118">
      <path
         d="M 0,0 H 179 V 77.000008 H 0 Z"
         transform="matrix(1,0,0,-1,1.8336243e-6,77.000007)"
         id="path118" />
    </clipPath>
    <clipPath
       clipPathUnits="userSpaceOnUse"
       id="clipPath119">
      <path
         d="M 0,0 H 179 V 77.000008 H 0 Z"
         transform="matrix(1,0,0,-1,1.8336243e-6,77.000007)"
         id="path119" />
    </clipPath>
    <clipPath
       clipPathUnits="userSpaceOnUse"
       id="clipPath120">
      <path
         d="M 0,0 H 179 V 77.000008 H 0 Z"
         transform="matrix(1,0,0,-1,1.8336243e-6,77.000007)"
         id="path120" />
    </clipPath>
    <clipPath
       clipPathUnits="userSpaceOnUse"
       id="clipPath121">
      <path
         d="M 0,0 H 179 V 77.000008 H 0 Z"
         transform="matrix(1,0,0,-1,1.8336243e-6,77.000007)"
         id="path121" />
    </clipPath>
    <clipPath
       clipPathUnits="userSpaceOnUse"
       id="clipPath122">
      <path
         d="M 0,0 H 179 V 77.000008 H 0 Z"
         transform="matrix(1,0,0,-1,1.8336243e-6,77.000007)"
         id="path122" />
    </clipPath>
    <clipPath
       clipPathUnits="userSpaceOnUse"
       id="clipPath123">
      <path
         d="M 0,0 H 179 V 77.000008 H 0 Z"
         transform="matrix(1,0,0,-1,1.8336243e-6,77.000007)"
         id="path123" />
    </clipPath>
    <clipPath
       clipPathUnits="userSpaceOnUse"
       id="clipPath124">
      <path
         d="M 0,0 H 179 V 77.000008 H 0 Z"
         transform="matrix(1,0,0,-1,1.8336243e-6,77.000007)"
         id="path124" />
    </clipPath>
    <clipPath
       clipPathUnits="userSpaceOnUse"
       id="clipPath125">
      <path
         d="M 0,0 H 179 V 77.000008 H 0 Z"
         transform="matrix(1,0,0,-1,1.8336243e-6,77.000007)"
         id="path125" />
    </clipPath>
    <clipPath
       clipPathUnits="userSpaceOnUse"
       id="clipPath126">
      <path
         d="M 0,0 H 179 V 77.000008 H 0 Z"
         transform="matrix(1,0,0,-1,1.8336243e-6,77.000007)"
         id="path126" />
    </clipPath>
    <clipPath
       clipPathUnits="userSpaceOnUse"
       id="clipPath127">
      <path
         d="M 0,0 H 179 V 77.000008 H 0 Z"
         transform="matrix(1,0,0,-1,1.8336243e-6,77.000007)"
         id="path127" />
    </clipPath>
    <clipPath
       clipPathUnits="userSpaceOnUse"
       id="clipPath128">
      <path
         d="M 0,0 H 179 V 77.000008 H 0 Z"
         transform="matrix(1,0,0,-1,1.8336243e-6,77.000007)"
         id="path128" />
    </clipPath>
    <clipPath
       clipPathUnits="userSpaceOnUse"
       id="clipPath129">
      <path
         d="M 0,0 H 179 V 77.000008 H 0 Z"
         transform="matrix(1,0,0,-1,1.8336243e-6,77.000007)"
         id="path129" />
    </clipPath>
    <clipPath
       clipPathUnits="userSpaceOnUse"
       id="clipPath130">
      <path
         d="M 0,0 H 179 V 77.000008 H 0 Z"
         transform="matrix(1,0,0,-1,1.8336243e-6,77.000007)"
         id="path130" />
    </clipPath>
    <clipPath
       clipPathUnits="userSpaceOnUse"
       id="clipPath131">
      <path
         d="M 0,0 H 179 V 77.000008 H 0 Z"
         transform="matrix(1,0,0,-1,1.8336243e-6,77.000007)"
         id="path131" />
    </clipPath>
    <clipPath
       clipPathUnits="userSpaceOnUse"
       id="clipPath132">
      <path
         d="M 0,0 H 179 V 77.000008 H 0 Z"
         transform="matrix(1,0,0,-1,1.8336243e-6,77.000007)"
         id="path132" />
    </clipPath>
    <clipPath
       clipPathUnits="userSpaceOnUse"
       id="clipPath133">
      <path
         d="M 0,0 H 179 V 77.000008 H 0 Z"
         transform="matrix(1,0,0,-1,1.8336243e-6,77.000007)"
         id="path133" />
    </clipPath>
    <clipPath
       clipPathUnits="userSpaceOnUse"
       id="clipPath134">
      <path
         d="M 0,0 H 179 V 77.000008 H 0 Z"
         transform="matrix(1,0,0,-1,1.8336243e-6,77.000007)"
         id="path134" />
    </clipPath>
    <clipPath
       clipPathUnits="userSpaceOnUse"
       id="clipPath135">
      <path
         d="M 0,0 H 179 V 77.000008 H 0 Z"
         transform="matrix(1,0,0,-1,1.8336243e-6,77.000007)"
         id="path135" />
    </clipPath>
    <clipPath
       clipPathUnits="userSpaceOnUse"
       id="clipPath136">
      <path
         d="M 0,0 H 179 V 77.000008 H 0 Z"
         transform="matrix(-0.43894033,-0.73943977,-0.73943977,0.43894033,56.936865,-33.798409)"
         id="path136" />
    </clipPath>
    <clipPath
       clipPathUnits="userSpaceOnUse"
       id="clipPath137">
      <path
         d="M 0,0 H 179 V 77.000008 H 0 Z"
         transform="matrix(-0.46529093,0.68304197,0.68304197,0.46529093,-52.594237,-35.827403)"
         id="path137" />
    </clipPath>
    <clipPath
       clipPathUnits="userSpaceOnUse"
       id="clipPath1">
      <g
         id="g2"
         transform="matrix(2.0790701,0,0,2.0790701,-129.4203,-269.45456)">
        <path
           d="m 105.42324,134.41325 h 40.05492 v 7.21476 h -40.05492 z"
           id="path1"
           style="stroke-width:0.480984" />
      </g>
    </clipPath>
    <clipPath
       clipPathUnits="userSpaceOnUse"
       id="clipPath2">
      <g
         id="g3"
         transform="matrix(2.0790701,0,0,2.0790701,-129.4203,-269.45456)">
        <path
           d="m 105.42324,134.41325 h 40.05492 v 7.21476 h -40.05492 z"
           id="path2"
           style="stroke-width:0.480984" />
      </g>
    </clipPath>
    <clipPath
       clipPathUnits="userSpaceOnUse"
       id="clipPath4">
      <g
         id="g5"
         transform="matrix(2.0790701,0,0,2.0790701,-129.4203,-269.45456)">
        <path
           d="m 105.42324,136.33718 h 40.05492 v 3.84788 h -40.05492 z"
           id="path4"
           style="stroke-width:0.480984" />
      </g>
    </clipPath>
    <clipPath
       clipPathUnits="userSpaceOnUse"
       id="clipPath5">
      <g
         id="g6"
         transform="matrix(2.0790701,0,0,2.0790701,-129.4203,-269.45456)">
        <path
           d="m 105.42324,136.33718 h 40.05492 v 3.84788 h -40.05492 z"
           id="path5"
           style="stroke-width:0.480984" />
      </g>
    </clipPath>
  </defs>
  <g
     inkscape:groupmode="layer"
     id="layer4"
     inkscape:label="Layer 4"
     transform="translate(-106.00243,-133.95645)">
    <path
       d="M 91.738551,20.319207 173.10536,14.596506"
       style="display:inline;fill:none;stroke:#800080;stroke-width:1.56762;stroke-linecap:butt;stroke-linejoin:miter;stroke-miterlimit:3.25;stroke-dasharray:3.91905, 3.91905;stroke-dashoffset:0;stroke-opacity:0.8"
       transform="matrix(0.48098427,0,0,0.48098427,62.249129,129.6034)"
       clip-path="url(#clipPath5)"
       id="path172"
       sodipodi:nodetypes="cc" />
    <path
       d="M 91.818276,15.392413 173.14873,21.25112"
       style="display:inline;fill:none;stroke:#800080;stroke-width:1.56762;stroke-linecap:butt;stroke-linejoin:miter;stroke-miterlimit:3.25;stroke-dasharray:3.91905, 3.91905;stroke-dashoffset:0;stroke-opacity:0.4"
       transform="matrix(0.48098427,0,0,0.48098427,62.249129,129.6034)"
       clip-path="url(#clipPath4)"
       id="path173"
       sodipodi:nodetypes="cc" />
    <path
       d="M 92.07738,13.181724 C 128.41665,18.187293 172.781,24.273 172.781,24.273"
       style="display:inline;fill:none;stroke:#800080;stroke-width:1.56762;stroke-linecap:butt;stroke-linejoin:miter;stroke-miterlimit:3.25;stroke-dasharray:3.91905, 3.91905;stroke-dashoffset:0;stroke-opacity:0.2"
       transform="matrix(0.48098427,0,0,0.48098427,62.249129,129.6034)"
       clip-path="url(#clipPath2)"
       id="path175"
       sodipodi:nodetypes="cc" />
    <path
       d="M 91.670701,17.81115 C 118.8548,17.855767 173.223,17.945 173.223,17.945"
       style="display:inline;fill:none;stroke:#800080;stroke-width:1.56762;stroke-linecap:butt;stroke-linejoin:miter;stroke-miterlimit:3.25;stroke-dasharray:3.91905, 3.91905;stroke-dashoffset:0;stroke-opacity:0.6"
       transform="matrix(0.48098427,0,0,0.48098427,62.249129,129.6034)"
       clip-path="url(#clipPath80)"
       id="path174"
       sodipodi:nodetypes="cc" />
    <path
       d="M 91.898,22.789 173.004,11.586"
       style="display:inline;fill:none;stroke:#800080;stroke-width:1.56762;stroke-linecap:butt;stroke-linejoin:miter;stroke-miterlimit:3.25;stroke-dasharray:3.91905, 3.91905;stroke-dashoffset:0;stroke-opacity:1"
       transform="matrix(0.48098427,0,0,0.48098427,62.249129,129.6034)"
       clip-path="url(#clipPath1)"
       id="path176"
       sodipodi:nodetypes="cc" />
  </g>
  <g
     inkscape:label="Layer 1"
     inkscape:groupmode="layer"
     id="layer1"
     style="display:inline"
     transform="translate(-106.00243,-133.95645)">
    <path
       d="m 91.898,19.641 1.981,0.101 1.941,0.113 1.809,0.118 1.965,0.148 1.832,0.156 1.797,0.176 1.953,0.223 0.054,0.008 0.059,0.007 0.113,0.016 0.227,0.027 0.453,0.063 0.91,0.129 0.063,0.008 0.062,0.011 0.121,0.02 0.25,0.035 0.492,0.082 0.985,0.172 0.031,0.004 0.031,0.008 0.059,0.007 0.363,0.071 0.485,0.097 0.031,0.008 0.031,0.004 0.059,0.012 0.121,0.027 0.242,0.051 0.484,0.109 0.028,0.008 0.027,0.004 0.059,0.016 0.113,0.023 0.226,0.055 0.45,0.113 0.027,0.008 0.031,0.008 0.055,0.015 0.113,0.032 0.227,0.058 0.449,0.129 0.031,0.008 0.032,0.012 0.062,0.015 0.121,0.039 0.246,0.075 0.489,0.16 0.031,0.011 0.031,0.008 0.059,0.024 0.125,0.043 0.242,0.086 0.492,0.187 0.027,0.008 0.028,0.012 0.058,0.023 0.114,0.047 0.23,0.094 0.457,0.203 0.027,0.012 0.028,0.015 0.058,0.027 0.114,0.055 0.23,0.11 0.457,0.238 0.027,0.015 0.032,0.02 0.062,0.035 0.125,0.067 0.246,0.144 0.496,0.313 0.032,0.023 0.031,0.02 0.062,0.042 0.121,0.086 0.25,0.176 0.497,0.387 0.027,0.027 0.031,0.024 0.063,0.05 0.121,0.106 0.242,0.219 0.031,0.031 0.031,0.027 0.059,0.059 0.121,0.117 0.246,0.25 0.028,0.031 0.031,0.032 0.062,0.066 0.121,0.137 0.243,0.281 0.484,0.629 0.031,0.043 0.028,0.039 0.058,0.078 0.113,0.168 0.227,0.352 0.055,0.093 0.058,0.094 0.114,0.191 0.226,0.411 0.027,0.05 0.028,0.055 0.058,0.109 0.114,0.227 0.226,0.484 0.055,0.125 0.059,0.133 0.113,0.27 0.226,0.574 0.032,0.082 0.031,0.086 0.058,0.168 0.125,0.355 0.063,0.188 0.059,0.187 0.125,0.399 0.031,0.101 0.031,0.106 0.059,0.215 0.125,0.445 0.246,0.98 0.031,0.133 0.027,0.133 0.063,0.277 0.125,0.579 0.031,0.148 0.027,0.156 0.063,0.317 0.125,0.668 0.027,0.172 0.032,0.179 0.062,0.367 0.125,0.782 0.242,1.765 0.031,0.227 0.028,0.23 0.058,0.481 0.114,1.023 0.031,0.27 0.027,0.277 0.059,0.57 0.113,1.235 0.028,0.324 0.031,0.336 0.054,0.699 0.118,1.512 0.027,0.406 0.027,0.414 0.059,0.871 0.117,1.899 0.027,0.515 0.028,0.528 0.058,1.113 0.028,0.582 0.031,0.605 0.055,1.274 0.031,0.672 0.027,0.695 0.012,0.258"
       style="display:inline;fill:none;stroke:#000000;stroke-width:1.77553;stroke-linecap:square;stroke-linejoin:miter;stroke-miterlimit:3.25;stroke-dasharray:none;stroke-opacity:1"
       transform="matrix(0.48098427,0,0,0.48098427,62.249129,129.6034)"
       clip-path="url(#clipPath85)"
       id="path177"
       sodipodi:nodetypes="ccccccccccccccccccccccccccccccccccccccccccccccccccccccccccccccccccccccccccccccccccccccccccccccccccccccccccccccccccccccccccccccccccccccccccccccccccccccccccccccccccc" />
    <path
       d="m 128.5,56.547 0.008,-0.211 0.062,-1.453 0.032,-0.688 0.031,-0.664 0.058,-1.25 0.125,-2.258 0.028,-0.519 0.031,-0.504 0.063,-0.957 0.121,-1.75 0.031,-0.406 0.031,-0.395 0.059,-0.758 0.125,-1.394 0.027,-0.328 0.031,-0.317 0.063,-0.613 0.121,-1.137 0.031,-0.269 0.031,-0.262 0.059,-0.508 0.125,-0.945 0.055,-0.414 0.058,-0.399 0.114,-0.75 0.027,-0.179 0.031,-0.176 0.055,-0.344 0.113,-0.648 0.031,-0.156 0.028,-0.153 0.054,-0.301 0.118,-0.566 0.226,-1.031 0.027,-0.117 0.028,-0.122 0.058,-0.23 0.114,-0.441 0.23,-0.813 0.028,-0.098 0.027,-0.093 0.058,-0.184 0.114,-0.355 0.226,-0.661 0.125,-0.328 0.121,-0.312 0.25,-0.586 0.032,-0.066 0.027,-0.071 0.062,-0.133 0.125,-0.257 0.247,-0.485 0.031,-0.054 0.031,-0.059 0.063,-0.109 0.121,-0.219 0.25,-0.406 0.492,-0.723 0.031,-0.039 0.027,-0.043 0.063,-0.078 0.121,-0.157 0.242,-0.293 0.031,-0.039 0.032,-0.035 0.058,-0.066 0.121,-0.137 0.243,-0.258 0.062,-0.062 0.059,-0.063 0.121,-0.117 0.242,-0.226 0.484,-0.418 0.032,-0.024 0.027,-0.023 0.055,-0.043 0.113,-0.09 0.226,-0.168 0.454,-0.316 0.027,-0.02 0.027,-0.016 0.059,-0.039 0.34,-0.211 0.453,-0.261 0.027,-0.016 0.031,-0.019 0.063,-0.032 0.121,-0.066 0.246,-0.125 0.492,-0.238 0.032,-0.012 0.027,-0.016 0.062,-0.027 0.121,-0.055 0.247,-0.105 0.492,-0.199 0.054,-0.024 0.059,-0.023 0.113,-0.043 0.231,-0.082 0.457,-0.164 0.027,-0.008 0.031,-0.012 0.055,-0.016 0.117,-0.039 0.227,-0.074 0.461,-0.14 0.109,-0.032 0.113,-0.035 0.223,-0.062 0.449,-0.121 0.899,-0.223 0.031,-0.008 0.031,-0.004 0.059,-0.015 0.121,-0.028 0.246,-0.055 0.484,-0.105 0.977,-0.191 0.055,-0.008 0.058,-0.012 0.114,-0.019 0.226,-0.043 0.453,-0.079 0.91,-0.144 0.063,-0.008 0.062,-0.012 0.122,-0.015 0.246,-0.039 0.492,-0.071 0.984,-0.128 0.031,-0.004 0.028,-0.004 0.058,-0.008 0.114,-0.012 0.23,-0.031 0.461,-0.055 0.918,-0.101 1.805,-0.18 1.957,-0.168 1.828,-0.137 1.976,-0.129 1.942,-0.113 1.812,-0.094 1.965,-0.09 1.836,-0.078 1.797,-0.07 1.953,-0.066 1.82,-0.059 h 0.063 l 0.066,-0.004 0.125,-0.004 0.254,-0.008 0.508,-0.011 0.031,-0.004 h 0.098 l 0.125,-0.004 0.254,-0.008 h 0.031 l 0.035,-0.004 h 0.063 l 0.125,-0.004 h 0.066 l 0.063,-0.004 h 0.062 l 0.031,-0.004 h 0.032"
       style="display:inline;fill:none;stroke:#000000;stroke-width:1.77553;stroke-linecap:square;stroke-linejoin:miter;stroke-miterlimit:3.25;stroke-dasharray:none;stroke-opacity:1"
       transform="matrix(0.48098427,0,0,0.48098427,62.249129,129.6034)"
       clip-path="url(#clipPath87)"
       id="path178" />
    <path
       d="m 130.77127,49.655399 c 7.832,-0.535 12.95573,-5.061399 16.75973,-8.733399 5.317,-5.078 8.473,-11.516 10.699,-16.234"
       style="fill:none;stroke:#0000ff;stroke-width:1.45743;stroke-linecap:butt;stroke-linejoin:miter;stroke-miterlimit:3.25;stroke-dasharray:none;stroke-opacity:0.3"
       transform="matrix(0.48098426,0,0,0.48098426,62.249129,129.6034)"
       clip-path="url(#clipPath89)"
       id="path179"
       sodipodi:nodetypes="ccc" />
    <path
       d="m 157.051,24.113 0.168,0.004 0.39,0.028 0.231,0.027 0.226,0.039 0.204,0.051 0.16,0.062 0.125,0.09 0.152,0.137 0.164,0.172 0.164,0.183 0.27,0.328 0.113,0.141 1.144,-5.051 z"
       style="fill:#0000ff;fill-opacity:0.3;fill-rule:nonzero;stroke:none"
       transform="matrix(0.67570656,0,0,0.67570656,31.366616,125.06302)"
       clip-path="url(#clipPath90)"
       id="path180" />
    <path
       d="m 164.711,16.016 c 0,-0.688 -0.27,-1.348 -0.758,-1.836 -0.484,-0.485 -1.144,-0.758 -1.832,-0.758 -0.687,0 -1.348,0.273 -1.832,0.758 -0.488,0.488 -0.762,1.148 -0.762,1.836 0,0.687 0.274,1.343 0.762,1.832 0.484,0.484 1.145,0.757 1.832,0.757 0.688,0 1.348,-0.273 1.832,-0.757 0.488,-0.489 0.758,-1.145 0.758,-1.832 z"
       style="fill:#0000ff;fill-opacity:1;fill-rule:evenodd;stroke:none"
       transform="matrix(0.76408786,0,0,0.76408786,16.352657,125.06992)"
       clip-path="url(#clipPath91)"
       id="path181" />
    <path
       d="m 129.551,50.113 c 0,-0.687 -0.274,-1.347 -0.758,-1.832 -0.488,-0.488 -1.148,-0.761 -1.836,-0.761 -0.684,0 -1.344,0.273 -1.832,0.761 -0.484,0.485 -0.758,1.145 -0.758,1.832 0,0.688 0.274,1.344 0.758,1.832 0.488,0.485 1.148,0.758 1.832,0.758 0.688,0 1.348,-0.273 1.836,-0.758 0.484,-0.488 0.758,-1.144 0.758,-1.832 z"
       style="fill:#0000ff;fill-opacity:0.3;fill-rule:nonzero;stroke:none"
       transform="matrix(0.7498808,0,0,0.70746714,28.110293,118.254)"
       clip-path="url(#clipPath134)"
       id="path224" />
  </g>
  <g
     inkscape:groupmode="layer"
     id="layer3"
     inkscape:label="Layer 3"
     transform="translate(-106.00243,-133.95645)" />
  <g
     inkscape:groupmode="layer"
     id="layer2"
     inkscape:label="Layer 2"
     style="display:inline"
     transform="translate(-106.00243,-133.95645)">
    <path
       d="m -34.19,-77.384 0.902,-0.903 -3.16,0.903 3.162,0.905 z"
       style="display:inline;fill:#b366b3;fill-opacity:1;fill-rule:evenodd;stroke:#b366b3;stroke-width:0.240774;stroke-linecap:butt;stroke-linejoin:miter;stroke-miterlimit:4;stroke-dasharray:none;stroke-opacity:1"
       transform="matrix(-0.28551804,0.48098427,-0.48098427,-0.28551804,62.249129,129.6034)"
       clip-path="url(#clipPath136)"
       id="path226" />
    <path
       d="m 98.32,10.664 c 0,0 -2,3.371 -2.004,6.996 0,3.625 2.235,6.906 2.235,6.906"
       style="display:inline;fill:none;stroke:#b366b3;stroke-width:1.05;stroke-linecap:round;stroke-linejoin:miter;stroke-miterlimit:4;stroke-dasharray:none;stroke-opacity:1"
       transform="matrix(0.48098427,0,0,0.48098427,62.249129,129.6034)"
       clip-path="url(#clipPath135)"
       id="path225" />
    <path
       d="m -61.591,55.883 0.867,-0.866 -3.035,0.866 3.034,0.868 z"
       style="display:inline;fill:#b366b3;fill-opacity:1;fill-rule:evenodd;stroke:#b366b3;stroke-width:0.23141;stroke-linecap:butt;stroke-linejoin:miter;stroke-miterlimit:4;stroke-dasharray:none;stroke-opacity:1"
       transform="matrix(-0.32764841,-0.48098427,0.48098427,-0.32764841,62.249129,129.6034)"
       clip-path="url(#clipPath137)"
       id="path227" />
  </g>
</svg>
